<svg width="28" height="28" viewBox="0 0 28 28" fill="none" xmlns="http://www.w3.org/2000/svg">
<path d="M25.6667 0H2.33333C1.71449 0 1.121 0.245833 0.683417 0.683417C0.245833 1.121 0 1.71449 0 2.33333V25.6667C0 26.2855 0.245833 26.879 0.683417 27.3166C1.121 27.7542 1.71449 28 2.33333 28H25.6667C26.2855 28 26.879 27.7542 27.3166 27.3166C27.7542 26.879 28 26.2855 28 25.6667V2.33333C28 1.71449 27.7542 1.121 27.3166 0.683417C26.879 0.245833 26.2855 0 25.6667 0ZM4.66667 5.83333H23.3333C23.6428 5.83333 23.9395 5.95625 24.1583 6.17504C24.3771 6.39383 24.5 6.69058 24.5 7C24.5 7.30942 24.3771 7.60616 24.1583 7.82496C23.9395 8.04375 23.6428 8.16667 23.3333 8.16667H4.66667C4.35725 8.16667 4.0605 8.04375 3.84171 7.82496C3.62292 7.60616 3.5 7.30942 3.5 7C3.5 6.69058 3.62292 6.39383 3.84171 6.17504C4.0605 5.95625 4.35725 5.83333 4.66667 5.83333ZM12.8333 22.1667H4.66667C4.35725 22.1667 4.0605 22.0438 3.84171 21.825C3.62292 21.6062 3.5 21.3094 3.5 21C3.5 20.6906 3.62292 20.3938 3.84171 20.175C4.0605 19.9562 4.35725 19.8333 4.66667 19.8333H12.8333C13.1428 19.8333 13.4395 19.9562 13.6583 20.175C13.8771 20.3938 14 20.6906 14 21C14 21.3094 13.8771 21.6062 13.6583 21.825C13.4395 22.0438 13.1428 22.1667 12.8333 22.1667ZM15.1667 15.1667H4.66667C4.35725 15.1667 4.0605 15.0438 3.84171 14.825C3.62292 14.6062 3.5 14.3094 3.5 14C3.5 13.6906 3.62292 13.3938 3.84171 13.175C4.0605 12.9562 4.35725 12.8333 4.66667 12.8333H15.1667C15.4761 12.8333 15.7728 12.9562 15.9916 13.175C16.2104 13.3938 16.3333 13.6906 16.3333 14C16.3333 14.3094 16.2104 14.6062 15.9916 14.825C15.7728 15.0438 15.4761 15.1667 15.1667 15.1667ZM24.5 19.8333H22.1667V22.1667C22.1667 22.4761 22.0438 22.7728 21.825 22.9916C21.6062 23.2104 21.3094 23.3333 21 23.3333C20.6906 23.3333 20.3938 23.2104 20.175 22.9916C19.9562 22.7728 19.8333 22.4761 19.8333 22.1667V19.8333H17.5C17.1906 19.8333 16.8938 19.7104 16.675 19.4916C16.4562 19.2728 16.3333 18.9761 16.3333 18.6667C16.3333 18.3572 16.4562 18.0605 16.675 17.8417C16.8938 17.6229 17.1906 17.5 17.5 17.5H19.8333V15.1667C19.8333 14.8572 19.9562 14.5605 20.175 14.3417C20.3938 14.1229 20.6906 14 21 14C21.3094 14 21.6062 14.1229 21.825 14.3417C22.0438 14.5605 22.1667 14.8572 22.1667 15.1667V17.5H24.5C24.8094 17.5 25.1062 17.6229 25.325 17.8417C25.5438 18.0605 25.6667 18.3572 25.6667 18.6667C25.6667 18.9761 25.5438 19.2728 25.325 19.4916C25.1062 19.7104 24.8094 19.8333 24.5 19.8333Z" fill="white"/>
</svg>
