<svg width="32" height="32" viewBox="0 0 32 32" fill="none" xmlns="http://www.w3.org/2000/svg">
<path d="M20 17.3335C21.7681 17.3335 23.4638 18.0359 24.7141 19.2861C25.9643 20.5364 26.6667 22.2321 26.6667 24.0002V25.3335C26.6667 26.0407 26.3857 26.719 25.8856 27.2191C25.3855 27.7192 24.7073 28.0002 24 28.0002H5.33335C4.62611 28.0002 3.94783 27.7192 3.44774 27.2191C2.94764 26.719 2.66669 26.0407 2.66669 25.3335V24.0002C2.66669 22.2321 3.36907 20.5364 4.61931 19.2861C5.86955 18.0359 7.56524 17.3335 9.33335 17.3335H20ZM25.3334 9.3335C25.687 9.3335 26.0261 9.47397 26.2762 9.72402C26.5262 9.97407 26.6667 10.3132 26.6667 10.6668V12.0002H28C28.3536 12.0002 28.6928 12.1406 28.9428 12.3907C29.1929 12.6407 29.3334 12.9799 29.3334 13.3335C29.3334 13.6871 29.1929 14.0263 28.9428 14.2763C28.6928 14.5264 28.3536 14.6668 28 14.6668H26.6667V16.0002C26.6667 16.3538 26.5262 16.6929 26.2762 16.943C26.0261 17.193 25.687 17.3335 25.3334 17.3335C24.9797 17.3335 24.6406 17.193 24.3905 16.943C24.1405 16.6929 24 16.3538 24 16.0002V14.6668H22.6667C22.3131 14.6668 21.9739 14.5264 21.7239 14.2763C21.4738 14.0263 21.3334 13.6871 21.3334 13.3335C21.3334 12.9799 21.4738 12.6407 21.7239 12.3907C21.9739 12.1406 22.3131 12.0002 22.6667 12.0002H24V10.6668C24 10.3132 24.1405 9.97407 24.3905 9.72402C24.6406 9.47397 24.9797 9.3335 25.3334 9.3335ZM14.6667 1.3335C16.4348 1.3335 18.1305 2.03587 19.3807 3.28612C20.631 4.53636 21.3334 6.23205 21.3334 8.00016C21.3334 9.76827 20.631 11.464 19.3807 12.7142C18.1305 13.9644 16.4348 14.6668 14.6667 14.6668C12.8986 14.6668 11.2029 13.9644 9.95264 12.7142C8.7024 11.464 8.00002 9.76827 8.00002 8.00016C8.00002 6.23205 8.7024 4.53636 9.95264 3.28612C11.2029 2.03587 12.8986 1.3335 14.6667 1.3335Z" fill="white"/>
</svg>
