<svg width="36" height="36" viewBox="0 0 36 36" fill="none" xmlns="http://www.w3.org/2000/svg">
<path d="M20.25 12.375C20.25 15.0603 19.1833 17.6356 17.2845 19.5345C15.3857 21.4333 12.8103 22.5 10.125 22.5C7.43968 22.5 4.86435 21.4333 2.96554 19.5345C1.06674 17.6356 0 15.0603 0 12.375C0 9.68968 1.06674 7.11435 2.96554 5.21554C4.86435 3.31674 7.43968 2.25 10.125 2.25C12.8103 2.25 15.3857 3.31674 17.2845 5.21554C19.1833 7.11435 20.25 9.68968 20.25 12.375ZM10.125 6.75C9.82663 6.75 9.54048 6.86853 9.3295 7.0795C9.11853 7.29048 9 7.57663 9 7.875V12.375C9 12.6734 9.11853 12.9595 9.3295 13.1705C9.54048 13.3815 9.82663 13.5 10.125 13.5H13.5C13.7984 13.5 14.0845 13.3815 14.2955 13.1705C14.5065 12.9595 14.625 12.6734 14.625 12.375C14.625 12.0766 14.5065 11.7905 14.2955 11.5795C14.0845 11.3685 13.7984 11.25 13.5 11.25H11.25V7.875C11.25 7.57663 11.1315 7.29048 10.9205 7.0795C10.7095 6.86853 10.4234 6.75 10.125 6.75ZM10.125 24.75C14.4675 24.75 18.2925 22.5112 20.4975 19.125H25.9492L23.9018 15.2865C23.5691 14.6626 23.0489 14.1589 22.4145 13.8465C22.507 13.0557 22.5243 12.2579 22.4662 11.4637C23.1926 11.6711 23.8698 12.0226 24.4574 12.4973C25.045 12.972 25.5309 13.5602 25.8862 14.2267L28.4422 19.017L32.2605 20.376C33.3541 20.7651 34.3006 21.483 34.9701 22.4313C35.6396 23.3795 35.9994 24.5117 36 25.6725V26.4352C36 28.0327 35.0505 29.4053 33.6825 30.024C33.5056 31.0373 32.9869 31.9595 32.2128 32.6369C31.4386 33.3143 30.4558 33.706 29.4279 33.7468C28.4 33.7875 27.3892 33.4749 26.5639 32.861C25.7385 32.2471 25.1483 31.3689 24.8918 30.3727H15.6082C15.3517 31.3689 14.7615 32.2471 13.9361 32.861C13.1108 33.4749 12.1 33.7875 11.0721 33.7468C10.0442 33.706 9.06138 33.3143 8.28723 32.6369C7.51307 31.9595 6.99436 31.0373 6.8175 30.024C6.12719 29.7124 5.54141 29.2083 5.13036 28.5722C4.71931 27.9361 4.50044 27.1949 4.5 26.4375V23.931C4.5 23.757 4.5075 23.5845 4.5225 23.4135C6.2055 24.2685 8.109 24.75 10.125 24.75ZM9 29.25C9 29.8467 9.23705 30.419 9.65901 30.841C10.081 31.2629 10.6533 31.5 11.25 31.5C11.8467 31.5 12.419 31.2629 12.841 30.841C13.2629 30.419 13.5 29.8467 13.5 29.25C13.5 28.6533 13.2629 28.081 12.841 27.659C12.419 27.2371 11.8467 27 11.25 27C10.6533 27 10.081 27.2371 9.65901 27.659C9.23705 28.081 9 28.6533 9 29.25ZM29.25 27C28.6533 27 28.081 27.2371 27.659 27.659C27.2371 28.081 27 28.6533 27 29.25C27 29.8467 27.2371 30.419 27.659 30.841C28.081 31.2629 28.6533 31.5 29.25 31.5C29.8467 31.5 30.419 31.2629 30.841 30.841C31.2629 30.419 31.5 29.8467 31.5 29.25C31.5 28.6533 31.2629 28.081 30.841 27.659C30.419 27.2371 29.8467 27 29.25 27Z" fill="white"/>
<path d="M10.125 6.75C10.7463 6.75 11.25 7.25368 11.25 7.875V11.25H14.625C15.2463 11.25 15.75 11.7537 15.75 12.375C15.75 12.9963 15.2463 13.5 14.625 13.5H11.25V16.875C11.25 17.4963 10.7463 18 10.125 18C9.50368 18 9 17.4963 9 16.875V13.5H5.625C5.00368 13.5 4.5 12.9963 4.5 12.375C4.5 11.7537 5.00368 11.25 5.625 11.25H9V7.875C9 7.25368 9.50368 6.75 10.125 6.75Z" fill="#6500D8"/>
</svg>
