<svg width="36" height="36" viewBox="0 0 36 36" fill="none" xmlns="http://www.w3.org/2000/svg">
<path d="M8.76562 11.6719C11.0541 11.6752 12.3332 11.7202 14.2471 13.0049C15.4688 14.25 15.4688 14.25 17.25 16.5C19.1743 15.6753 20.1773 15.0951 21.4688 13.4063C24.2493 11.2111 27.3247 11.6194 30.75 12C31.5 12.75 31.5 12.75 31.5851 14.694C31.5812 15.5385 31.5773 16.3829 31.5732 17.2529C31.5708 18.1641 31.5684 19.0753 31.5659 20.0142C31.5565 21.4535 31.5565 21.4535 31.5469 22.9219C31.5435 23.8843 31.5401 24.8468 31.5366 25.8384C31.5277 28.2256 31.5154 30.6128 31.5 33C30.51 33 29.52 33 28.5 33C28.5 30.03 28.5 27.06 28.5 24C27.51 24 26.52 24 25.5 24C25.5 26.97 25.5 29.94 25.5 33C24.51 33 23.52 33 22.5 33C22.2525 28.7925 22.005 24.585 21.75 20.25C20.76 21.24 19.77 22.23 18.75 23.25C16.899 22.3862 15.7141 21.7141 14.25 20.25C14.0025 24.4575 13.755 28.665 13.5 33C12.51 33 11.52 33 10.5 33C10.5 30.03 10.5 27.06 10.5 24C9.51 24 8.52 24 7.5 24C7.5 26.97 7.5 29.94 7.5 33C6.51 33 5.52 33 4.5 33C4.47835 29.6406 4.46494 26.2813 4.45312 22.9219C4.44684 21.9623 4.44056 21.0028 4.43408 20.0142C4.43167 19.103 4.42925 18.1917 4.42676 17.2529C4.42283 16.4085 4.4189 15.5641 4.41486 14.694C4.55623 11.4662 5.8302 11.8167 8.76562 11.6719Z" fill="white"/>
<path d="M27 2.90625C27.393 2.92263 27.7174 2.93614 27.9891 2.95129C29.4345 3.0319 30.0703 4.55227 30.0703 6C30.0703 7.44773 29.4345 8.9681 27.9891 9.04871C27.7174 9.06386 27.393 9.07737 27 9.09375C26.607 9.07737 26.2826 9.06386 26.0109 9.04871C24.5655 8.9681 23.9297 7.44773 23.9297 6C23.9297 4.55227 24.5655 3.0319 26.0109 2.95129C26.2826 2.93614 26.607 2.92263 27 2.90625Z" fill="white"/>
<path d="M9 2.90625C9.393 2.92263 9.71736 2.93614 9.98906 2.95129C11.4345 3.0319 12.0703 4.55227 12.0703 6C12.0703 7.44773 11.4345 8.9681 9.98906 9.04871C9.71736 9.06386 9.393 9.07737 9 9.09375C8.607 9.07737 8.28264 9.06386 8.01094 9.04871C6.56546 8.9681 5.92969 7.44773 5.92969 6C5.92969 4.55227 6.56546 3.0319 8.01094 2.95129C8.28264 2.93614 8.607 2.92263 9 2.90625Z" fill="white"/>
</svg>
