<svg width="34" height="34" viewBox="0 0 34 34" fill="none" xmlns="http://www.w3.org/2000/svg">
<path d="M4.15705 0.619995V5.29999H1.81705L5.32705 9.97999L8.83923 5.29999H6.49923V0.619995H4.15705ZM15.8592 0.619995V5.29999H13.5192L17.0292 9.97999L20.5392 5.29999H18.1992V0.619995H15.8592ZM27.5592 0.619995V5.29999H25.2192L28.7292 9.97999L32.2392 5.29999H29.8992V0.619995H27.5592ZM5.32705 12.32C4.06927 12.32 2.95044 13.6654 2.95044 15.4278C2.95044 16.3346 3.25027 17.1389 3.70371 17.6947L4.15705 18.2651L3.43311 18.3748C2.74577 18.4844 2.27777 18.8134 1.89016 19.3327C1.50255 19.8519 1.21742 20.5684 1.04192 21.4094C0.698229 22.9378 0.690918 24.8171 0.690918 26.455H2.58488L3.0455 33.6213H7.41329L7.93984 26.455H9.93612C9.92884 24.839 9.84835 22.9817 9.4754 21.4607C9.27063 20.6343 8.98546 19.9103 8.59796 19.3839C8.22501 18.8647 7.76429 18.5357 7.14268 18.4187L6.4334 18.287L6.9014 17.7386C7.3694 17.1682 7.69118 16.3564 7.69118 15.4278C7.69118 13.7679 6.68935 12.4736 5.56105 12.32H5.32705ZM17.0292 12.32C15.7715 12.32 14.6526 13.6654 14.6526 15.4278C14.6526 16.3346 14.9525 17.1389 15.4059 17.6947L15.8592 18.2651L15.1353 18.3748C14.448 18.4844 13.98 18.8134 13.5923 19.3327C13.2048 19.8519 12.9196 20.5684 12.7441 21.4094C12.4004 22.9378 12.3931 24.8171 12.3931 26.455H14.2871L14.7477 33.6213H19.1133L19.6398 26.455H21.6361C21.6288 24.839 21.5483 22.9817 21.1754 21.4607C20.9706 20.6343 20.6855 19.9103 20.298 19.3839C19.925 18.8647 19.4643 18.5357 18.8427 18.4187L18.1334 18.287L18.6014 17.7386C19.0694 17.1682 19.3912 16.3564 19.3912 15.4278C19.3912 13.7679 18.3893 12.4736 17.2632 12.32H17.0292ZM28.7292 12.32C27.4788 12.32 26.36 13.6654 26.36 15.4278C26.36 16.3346 26.6598 17.1389 27.1132 17.6947L27.5665 18.2651L26.8426 18.3748C26.1552 18.4844 25.68 18.8134 25.2923 19.3327C24.9048 19.8519 24.6196 20.5684 24.4441 21.4094C24.1004 22.9378 24.0931 24.8171 24.0931 26.455H25.9871L26.4551 33.6213H30.8133L31.3471 26.455H33.3361C33.3288 24.839 33.2483 22.9817 32.8827 21.4607C32.678 20.6343 32.3855 19.9103 31.998 19.3839C31.625 18.8647 31.1643 18.5357 30.5501 18.4187L29.8407 18.287L30.3014 17.7386C30.7694 17.1682 31.0912 16.3564 31.0912 15.4278C31.0912 13.7679 30.0893 12.4736 28.9632 12.32H28.7292Z" fill="white"/>
</svg>
