<svg width="36" height="36" viewBox="0 0 36 36" fill="none" xmlns="http://www.w3.org/2000/svg">
<path d="M5.99991 15L4.93941 16.0605L3.87891 15L4.93941 13.9395L5.99991 15ZM31.4999 27C31.4999 27.3978 31.3419 27.7794 31.0606 28.0607C30.7793 28.342 30.3977 28.5 29.9999 28.5C29.6021 28.5 29.2205 28.342 28.9392 28.0607C28.6579 27.7794 28.4999 27.3978 28.4999 27H31.4999ZM12.4394 23.5605L4.93941 16.0605L7.06041 13.9395L14.5604 21.4395L12.4394 23.5605ZM4.93941 13.9395L12.4394 6.43951L14.5604 8.56051L7.06041 16.0605L4.93941 13.9395ZM5.99991 13.5H20.9999V16.5H5.99991V13.5ZM31.4999 24V27H28.4999V24H31.4999ZM20.9999 13.5C23.7847 13.5 26.4554 14.6063 28.4245 16.5754C30.3937 18.5445 31.4999 21.2152 31.4999 24H28.4999C28.4999 22.0109 27.7097 20.1032 26.3032 18.6967C24.8967 17.2902 22.989 16.5 20.9999 16.5V13.5Z" fill="#999999"/>
</svg>
