<svg width="32" height="32" viewBox="0 0 32 32" fill="none" xmlns="http://www.w3.org/2000/svg">
<path d="M28.0934 3.47999H26.36V0.359985H22.8934V3.47999H9.02662V0.359985H5.55999V3.47999H3.82662C1.90262 3.47999 0.377322 4.88399 0.377322 6.59999L0.359985 28.44C0.359985 30.156 1.90262 31.56 3.82662 31.56H28.0934C30 31.56 31.56 30.156 31.56 28.44V6.59999C31.56 4.88399 30 3.47999 28.0934 3.47999ZM28.0934 28.44H3.82662V12.84H28.0934V28.44ZM10.76 19.08H7.29335V15.96H10.76V19.08ZM17.6934 19.08H14.2266V15.96H17.6934V19.08ZM24.6266 19.08H21.16V15.96H24.6266V19.08ZM10.76 25.32H7.29335V22.2H10.76V25.32ZM17.6934 25.32H14.2266V22.2H17.6934V25.32ZM24.6266 25.32H21.16V22.2H24.6266V25.32Z" fill="white"/>
</svg>
