<svg width="26" height="34" viewBox="0 0 26 34" fill="none" xmlns="http://www.w3.org/2000/svg">
<path d="M10.92 0.359985C12.0705 0.359985 13 1.28949 13 2.43999V9.71999H8.83999V2.43999C8.83999 1.28949 9.76944 0.359985 10.92 0.359985ZM2.59999 4.51999C2.59999 3.36943 3.52944 2.43999 4.67999 2.43999C5.83054 2.43999 6.75999 3.36943 6.75999 4.51999V9.71999H2.59999V4.51999ZM15.08 4.51999C15.08 3.36943 16.0094 2.43999 17.16 2.43999C18.3105 2.43999 19.24 3.36943 19.24 4.51999V10.76C19.24 11.9105 18.3105 12.84 17.16 12.84C16.0094 12.84 15.08 11.9105 15.08 10.76V4.51999ZM21.32 8.67999C21.32 7.52943 22.2494 6.59999 23.4 6.59999C24.5505 6.59999 25.48 7.52943 25.48 8.67999V12.84C25.48 13.9905 24.5505 14.92 23.4 14.92C22.2494 14.92 21.32 13.9905 21.32 12.84V8.67999ZM15.08 14.4V14.361C15.691 14.712 16.3995 14.92 17.16 14.92C18.018 14.92 18.811 14.66 19.474 14.218C20.0395 15.8364 21.5865 17 23.4 17C24.1604 17 24.869 16.7984 25.48 16.441V17C25.48 20.3994 23.8485 23.422 21.32 25.32V31.56C21.32 32.7105 20.3905 33.64 19.24 33.64H8.83999C7.68944 33.64 6.75999 32.7105 6.75999 31.56V26.464C5.63554 25.9505 4.60199 25.242 3.71144 24.3515L2.95754 23.5975C1.39754 22.0375 0.519989 19.9185 0.519989 17.715V15.96C0.519989 13.6655 2.38554 11.8 4.67999 11.8H10.4C11.8365 11.8 13 12.9634 13 14.4C13 15.8365 11.8365 17 10.4 17H6.75999C6.18799 17 5.71999 17.468 5.71999 18.04C5.71999 18.612 6.18799 19.08 6.75999 19.08H10.4C12.987 19.08 15.08 16.987 15.08 14.4Z" fill="white"/>
</svg>
