<svg width="26" height="30" viewBox="0 0 26 30" fill="none" xmlns="http://www.w3.org/2000/svg">
<path d="M13.625 25.5H13.25C9.7 25.5 6.6875 24.2625 4.2125 21.7875C1.7375 19.3125 0.5 16.3 0.5 12.75C0.5 9.2 1.7375 6.1875 4.2125 3.7125C6.6875 1.2375 9.7 0 13.25 0C15.025 0 16.6815 0.331 18.2195 0.993C19.7575 1.655 21.1075 2.5675 22.2695 3.7305C23.4315 4.8935 24.3435 6.2435 25.0055 7.7805C25.6675 9.3175 25.999 10.974 26 12.75C26 16.1 25.056 19.2125 23.168 22.0875C21.28 24.9625 18.899 27.2125 16.025 28.8375C15.775 28.9625 15.525 29.0315 15.275 29.0445C15.025 29.0575 14.8 29.001 14.6 28.875C14.4 28.749 14.225 28.5865 14.075 28.3875C13.925 28.1885 13.8375 27.951 13.8125 27.675L13.625 25.5ZM13.2125 20.9625C13.6375 20.9625 14 20.8125 14.3 20.5125C14.6 20.2125 14.75 19.85 14.75 19.425C14.75 19 14.6 18.6375 14.3 18.3375C14 18.0375 13.6375 17.8875 13.2125 17.8875C12.7875 17.8875 12.425 18.0375 12.125 18.3375C11.825 18.6375 11.675 19 11.675 19.425C11.675 19.85 11.825 20.2125 12.125 20.5125C12.425 20.8125 12.7875 20.9625 13.2125 20.9625ZM9.95 9.5625C10.225 9.6875 10.5 9.694 10.775 9.582C11.05 9.47 11.275 9.2885 11.45 9.0375C11.675 8.7375 11.9375 8.506 12.2375 8.343C12.5375 8.18 12.875 8.099 13.25 8.1C13.85 8.1 14.3375 8.2685 14.7125 8.6055C15.0875 8.9425 15.275 9.374 15.275 9.9C15.275 10.225 15.1815 10.55 14.9945 10.875C14.8075 11.2 14.476 11.6 14 12.075C13.375 12.625 12.9125 13.144 12.6125 13.632C12.3125 14.12 12.1625 14.6135 12.1625 15.1125C12.1625 15.4125 12.269 15.669 12.482 15.882C12.695 16.095 12.951 16.201 13.25 16.2C13.549 16.199 13.799 16.0865 14 15.8625C14.201 15.6385 14.351 15.376 14.45 15.075C14.575 14.65 14.8 14.2625 15.125 13.9125C15.45 13.5625 15.75 13.25 16.025 12.975C16.55 12.45 16.944 11.925 17.207 11.4C17.47 10.875 17.601 10.35 17.6 9.825C17.6 8.675 17.206 7.75 16.418 7.05C15.63 6.35 14.574 6 13.25 6C12.45 6 11.7125 6.194 11.0375 6.582C10.3625 6.97 9.8125 7.501 9.3875 8.175C9.2375 8.45 9.2185 8.719 9.3305 8.982C9.4425 9.245 9.649 9.4385 9.95 9.5625Z" fill="#6500D8"/>
</svg>
