<svg width="33" height="33" viewBox="0 0 33 33" fill="none" xmlns="http://www.w3.org/2000/svg">
<path d="M4.125 30.9375H3.09375C2.54674 30.9375 2.02214 30.7202 1.63534 30.3334C1.24855 29.9466 1.03125 29.422 1.03125 28.875V7.21875C1.03125 6.67174 1.24855 6.14714 1.63534 5.76034C2.02214 5.37355 2.54674 5.15625 3.09375 5.15625H4.125C4.67201 5.15625 5.19661 5.37355 5.58341 5.76034C5.9702 6.14714 6.1875 6.67174 6.1875 7.21875V28.875C6.1875 29.422 5.9702 29.9466 5.58341 30.3334C5.19661 30.7202 4.67201 30.9375 4.125 30.9375ZM15.4688 11.3438C15.4688 10.7967 15.2515 10.2721 14.8647 9.88534C14.4779 9.49855 13.9533 9.28125 13.4062 9.28125H9.28125C8.73424 9.28125 8.20964 9.49855 7.82284 9.88534C7.43605 10.2721 7.21875 10.7967 7.21875 11.3438V13.1484C7.21875 13.2168 7.24591 13.2824 7.29426 13.3307C7.34261 13.3791 7.40819 13.4062 7.47656 13.4062H15.2109C15.2793 13.4062 15.3449 13.3791 15.3932 13.3307C15.4416 13.2824 15.4688 13.2168 15.4688 13.1484V11.3438ZM7.21875 28.875C7.21875 29.422 7.43605 29.9466 7.82284 30.3334C8.20964 30.7202 8.73424 30.9375 9.28125 30.9375H13.4062C13.9533 30.9375 14.4779 30.7202 14.8647 30.3334C15.2515 29.9466 15.4688 29.422 15.4688 28.875V26.9414C15.4688 26.9072 15.4552 26.8744 15.431 26.8503C15.4068 26.8261 15.374 26.8125 15.3398 26.8125H7.34766C7.31347 26.8125 7.28068 26.8261 7.25651 26.8503C7.23233 26.8744 7.21875 26.9072 7.21875 26.9414V28.875Z" fill="white"/>
<path d="M15.3398 15.4688H7.34766C7.27646 15.4688 7.21875 15.5265 7.21875 15.5977V24.6211C7.21875 24.6923 7.27646 24.75 7.34766 24.75H15.3398C15.411 24.75 15.4688 24.6923 15.4688 24.6211V15.5977C15.4688 15.5265 15.411 15.4688 15.3398 15.4688Z" fill="white"/>
<path d="M20.625 30.9375H18.5625C18.0155 30.9375 17.4909 30.7202 17.1041 30.3334C16.7173 29.9466 16.5 29.422 16.5 28.875V4.125C16.5 3.57799 16.7173 3.05339 17.1041 2.66659C17.4909 2.2798 18.0155 2.0625 18.5625 2.0625H20.625C21.172 2.0625 21.6966 2.2798 22.0834 2.66659C22.4702 3.05339 22.6875 3.57799 22.6875 4.125V28.875C22.6875 29.422 22.4702 29.9466 22.0834 30.3334C21.6966 30.7202 21.172 30.9375 20.625 30.9375ZM31.9617 28.7106L29.8843 6.79658C29.7889 5.78789 28.7925 5.05635 27.6588 5.16527L25.6059 5.35863C24.4722 5.46627 23.6304 6.37119 23.7258 7.37988L25.8032 29.2939C25.8986 30.3026 26.895 31.0342 28.0287 30.9253L30.0816 30.7319C31.2153 30.6243 32.0571 29.7193 31.9617 28.7106Z" fill="white"/>
</svg>
