<svg width="32" height="32" viewBox="0 0 32 32" fill="none" xmlns="http://www.w3.org/2000/svg">
<path d="M8.00002 10.0001C8.00002 8.05516 8.77264 6.1899 10.1479 4.81463C11.5232 3.43937 13.3884 2.66675 15.3334 2.66675C17.2783 2.66675 19.1435 3.43937 20.5188 4.81463C21.8941 6.1899 22.6667 8.05516 22.6667 10.0001C22.6667 11.945 21.8941 13.8103 20.5188 15.1855C19.1435 16.5608 17.2783 17.3334 15.3334 17.3334C13.3884 17.3334 11.5232 16.5608 10.1479 15.1855C8.77264 13.8103 8.00002 11.945 8.00002 10.0001ZM15.6667 29.3334H2.66669V26.6667C2.66669 24.545 3.50954 22.5102 5.00983 21.0099C6.51012 19.5096 8.54496 18.6667 10.6667 18.6667H15.6667V29.3334ZM18.3334 18.6667H29.6667V21.3334H18.3334V18.6667ZM18.3334 22.6667H29.6667V25.3334H18.3334V22.6667ZM18.3334 26.6667H29.6667V29.3334H18.3334V26.6667Z" fill="white"/>
</svg>
