<svg width="36" height="36" viewBox="0 0 36 36" fill="none" xmlns="http://www.w3.org/2000/svg">
<path d="M5.10938 11.9004C5.65078 11.9023 6.19219 11.9043 6.75 11.9062C7.29141 11.9043 7.83281 11.9024 8.39063 11.9004C9.75 12 9.75 12 10.5 12.75C10.5307 14.4997 10.5318 16.2503 10.5 18C11.49 18 12.48 18 13.5 18C13.4845 17.1492 13.4691 16.2984 13.4531 15.4219C13.5 12.75 13.5 12.75 14.25 12C15.4982 11.9263 16.7496 11.9027 18 11.9062C19.0209 11.9033 19.0209 11.9033 20.0625 11.9004C21.75 12 21.75 12 22.5 12.75C22.5307 14.4997 22.5318 16.2503 22.5 18C23.49 18 24.48 18 25.5 18C25.4768 16.7238 25.4768 16.7238 25.4531 15.4219C25.5 12.75 25.5 12.75 26.25 12C27.6094 11.9004 27.6094 11.9004 29.25 11.9062C29.7914 11.9043 30.3328 11.9024 30.8906 11.9004C32.25 12 32.25 12 33 12.75C33.0738 13.7478 33.0981 14.7495 33.0996 15.75C33.1011 16.6549 33.1011 16.6549 33.1025 17.5781C33.0996 18.2123 33.0967 18.8466 33.0938 19.5C33.0981 20.4513 33.0981 20.4513 33.1025 21.4219C33.1016 22.0252 33.1006 22.6284 33.0996 23.25C33.0988 23.8069 33.0979 24.3638 33.097 24.9375C33 26.25 33 26.25 32.25 27C31.1105 27.0539 29.9687 27.0629 28.8281 27.0469C28.2084 27.0401 27.5887 27.0333 26.9502 27.0264C26.2324 27.0133 26.2324 27.0133 25.5 27C25.5 28.485 25.5 29.97 25.5 31.5C24.51 31.5 23.52 31.5 22.5 31.5C22.5 29.025 22.5 26.55 22.5 24C23.49 24 24.48 24 25.5 24C25.5 23.01 25.5 22.02 25.5 21C20.55 21 15.6 21 10.5 21C10.5 21.99 10.5 22.98 10.5 24C11.49 24 12.48 24 13.5 24C13.5 26.475 13.5 28.95 13.5 31.5C12.51 31.5 11.52 31.5 10.5 31.5C10.5 30.015 10.5 28.53 10.5 27C10.0214 27.0087 9.54287 27.0174 9.04981 27.0264C8.12023 27.0365 8.12023 27.0365 7.17188 27.0469C6.2452 27.0599 6.2452 27.0599 5.2998 27.0732C3.75 27 3.75 27 3 26.25C2.92622 25.2522 2.90191 24.2506 2.90039 23.25C2.89942 22.6467 2.89846 22.0434 2.89746 21.4219C2.90036 20.7877 2.90326 20.1534 2.90625 19.5C2.90335 18.8658 2.90045 18.2316 2.89746 17.5781C2.89843 16.9748 2.89939 16.3716 2.90039 15.75C2.90124 15.1931 2.90208 14.6363 2.90295 14.0625C3.0376 12.2415 3.29116 12.0336 5.10938 11.9004Z" fill="white"/>
<path d="M30 4.40625C30.393 4.42263 30.7174 4.43614 30.9891 4.45129C32.4345 4.5319 33.0703 6.05227 33.0703 7.5C33.0703 8.94773 32.4345 10.4681 30.9891 10.5487C30.7174 10.5639 30.393 10.5774 30 10.5938C29.607 10.5774 29.2826 10.5639 29.0109 10.5487C27.5655 10.4681 26.9297 8.94773 26.9297 7.5C26.9297 6.05227 27.5655 4.5319 29.0109 4.45129C29.2826 4.43614 29.607 4.42263 30 4.40625Z" fill="white"/>
<path d="M18 4.40625C18.393 4.42263 18.7174 4.43614 18.9891 4.45129C20.4345 4.5319 21.0703 6.05227 21.0703 7.5C21.0703 8.94773 20.4345 10.4681 18.9891 10.5487C18.7174 10.5639 18.393 10.5774 18 10.5938C17.607 10.5774 17.2826 10.5639 17.0109 10.5487C15.5655 10.4681 14.9297 8.94773 14.9297 7.5C14.9297 6.05227 15.5655 4.5319 17.0109 4.45129C17.2826 4.43614 17.607 4.42263 18 4.40625Z" fill="white"/>
<path d="M6 4.40625C6.393 4.42263 6.71736 4.43614 6.98906 4.45129C8.43454 4.5319 9.07031 6.05227 9.07031 7.5C9.07031 8.94773 8.43454 10.4681 6.98906 10.5487C6.71736 10.5639 6.393 10.5774 6 10.5938C5.607 10.5774 5.28264 10.5639 5.01094 10.5487C3.56546 10.4681 2.92969 8.94773 2.92969 7.5C2.92969 6.05227 3.56546 4.5319 5.01094 4.45129C5.28264 4.43614 5.607 4.42263 6 4.40625Z" fill="white"/>
</svg>
