<svg width="74" height="74" viewBox="0 0 74 74" fill="none" xmlns="http://www.w3.org/2000/svg">
<g filter="url(#filter0_d_539_1350)">
<rect y="36.9999" width="52" height="52" rx="10" transform="rotate(-45 0 36.9999)" fill="url(#paint0_radial_539_1350)"/>
<rect y="36.9999" width="52" height="52" rx="10" transform="rotate(-45 0 36.9999)" fill="url(#paint1_linear_539_1350)" fill-opacity="0.2"/>
<path d="M25 26.3333C25 25.9797 25.1405 25.6405 25.3905 25.3905C25.6406 25.1404 25.9797 24.9999 26.3333 24.9999H30.3333C30.687 24.9999 31.0261 25.1404 31.2761 25.3905C31.5262 25.6405 31.6667 25.9797 31.6667 26.3333V30.3333C31.6667 30.6869 31.5262 31.026 31.2761 31.2761C31.0261 31.5261 30.687 31.6666 30.3333 31.6666H26.3333C25.9797 31.6666 25.6406 31.5261 25.3905 31.2761C25.1405 31.026 25 30.6869 25 30.3333V26.3333ZM25 34.9999C25 34.6463 25.1405 34.3072 25.3905 34.0571C25.6406 33.8071 25.9797 33.6666 26.3333 33.6666H30.3333C30.687 33.6666 31.0261 33.8071 31.2761 34.0571C31.5262 34.3072 31.6667 34.6463 31.6667 34.9999V38.9999C31.6667 39.3536 31.5262 39.6927 31.2761 39.9427C31.0261 40.1928 30.687 40.3333 30.3333 40.3333H26.3333C25.9797 40.3333 25.6406 40.1928 25.3905 39.9427C25.1405 39.6927 25 39.3536 25 38.9999V34.9999ZM25 43.6666C25 43.313 25.1405 42.9738 25.3905 42.7238C25.6406 42.4737 25.9797 42.3333 26.3333 42.3333H30.3333C30.687 42.3333 31.0261 42.4737 31.2761 42.7238C31.5262 42.9738 31.6667 43.313 31.6667 43.6666V47.6666C31.6667 48.0202 31.5262 48.3594 31.2761 48.6094C31.0261 48.8595 30.687 48.9999 30.3333 48.9999H26.3333C25.9797 48.9999 25.6406 48.8595 25.3905 48.6094C25.1405 48.3594 25 48.0202 25 47.6666V43.6666ZM33.6667 26.3333C33.6667 25.9797 33.8071 25.6405 34.0572 25.3905C34.3072 25.1404 34.6464 24.9999 35 24.9999H39C39.3536 24.9999 39.6928 25.1404 39.9428 25.3905C40.1929 25.6405 40.3333 25.9797 40.3333 26.3333V30.3333C40.3333 30.6869 40.1929 31.026 39.9428 31.2761C39.6928 31.5261 39.3536 31.6666 39 31.6666H35C34.6464 31.6666 34.3072 31.5261 34.0572 31.2761C33.8071 31.026 33.6667 30.6869 33.6667 30.3333V26.3333ZM33.6667 34.9999C33.6667 34.6463 33.8071 34.3072 34.0572 34.0571C34.3072 33.8071 34.6464 33.6666 35 33.6666H39C39.3536 33.6666 39.6928 33.8071 39.9428 34.0571C40.1929 34.3072 40.3333 34.6463 40.3333 34.9999V38.9999C40.3333 39.3536 40.1929 39.6927 39.9428 39.9427C39.6928 40.1928 39.3536 40.3333 39 40.3333H35C34.6464 40.3333 34.3072 40.1928 34.0572 39.9427C33.8071 39.6927 33.6667 39.3536 33.6667 38.9999V34.9999ZM33.6667 43.6666C33.6667 43.313 33.8071 42.9738 34.0572 42.7238C34.3072 42.4737 34.6464 42.3333 35 42.3333H39C39.3536 42.3333 39.6928 42.4737 39.9428 42.7238C40.1929 42.9738 40.3333 43.313 40.3333 43.6666V47.6666C40.3333 48.0202 40.1929 48.3594 39.9428 48.6094C39.6928 48.8595 39.3536 48.9999 39 48.9999H35C34.6464 48.9999 34.3072 48.8595 34.0572 48.6094C33.8071 48.3594 33.6667 48.0202 33.6667 47.6666V43.6666ZM42.3333 26.3333C42.3333 25.9797 42.4738 25.6405 42.7239 25.3905C42.9739 25.1404 43.313 24.9999 43.6667 24.9999H47.6667C48.0203 24.9999 48.3594 25.1404 48.6095 25.3905C48.8595 25.6405 49 25.9797 49 26.3333V30.3333C49 30.6869 48.8595 31.026 48.6095 31.2761C48.3594 31.5261 48.0203 31.6666 47.6667 31.6666H43.6667C43.313 31.6666 42.9739 31.5261 42.7239 31.2761C42.4738 31.026 42.3333 30.6869 42.3333 30.3333V26.3333ZM42.3333 34.9999C42.3333 34.6463 42.4738 34.3072 42.7239 34.0571C42.9739 33.8071 43.313 33.6666 43.6667 33.6666H47.6667C48.0203 33.6666 48.3594 33.8071 48.6095 34.0571C48.8595 34.3072 49 34.6463 49 34.9999V38.9999C49 39.3536 48.8595 39.6927 48.6095 39.9427C48.3594 40.1928 48.0203 40.3333 47.6667 40.3333H43.6667C43.313 40.3333 42.9739 40.1928 42.7239 39.9427C42.4738 39.6927 42.3333 39.3536 42.3333 38.9999V34.9999ZM42.3333 43.6666C42.3333 43.313 42.4738 42.9738 42.7239 42.7238C42.9739 42.4737 43.313 42.3333 43.6667 42.3333H47.6667C48.0203 42.3333 48.3594 42.4737 48.6095 42.7238C48.8595 42.9738 49 43.313 49 43.6666V47.6666C49 48.0202 48.8595 48.3594 48.6095 48.6094C48.3594 48.8595 48.0203 48.9999 47.6667 48.9999H43.6667C43.313 48.9999 42.9739 48.8595 42.7239 48.6094C42.4738 48.3594 42.3333 48.0202 42.3333 47.6666V43.6666Z" fill="white"/>
</g>
<defs>
<filter id="filter0_d_539_1350" x="-2" y="0.230408" width="77.5391" height="77.5391" filterUnits="userSpaceOnUse" color-interpolation-filters="sRGB">
<feFlood flood-opacity="0" result="BackgroundImageFix"/>
<feColorMatrix in="SourceAlpha" type="matrix" values="0 0 0 0 0 0 0 0 0 0 0 0 0 0 0 0 0 0 127 0" result="hardAlpha"/>
<feOffset dy="2"/>
<feGaussianBlur stdDeviation="1"/>
<feComposite in2="hardAlpha" operator="out"/>
<feColorMatrix type="matrix" values="0 0 0 0 0 0 0 0 0 0 0 0 0 0 0 0 0 0 0.25 0"/>
<feBlend mode="normal" in2="BackgroundImageFix" result="effect1_dropShadow_539_1350"/>
<feBlend mode="normal" in="SourceGraphic" in2="effect1_dropShadow_539_1350" result="shape"/>
</filter>
<radialGradient id="paint0_radial_539_1350" cx="0" cy="0" r="1" gradientUnits="userSpaceOnUse" gradientTransform="translate(34.0434 55.0468) rotate(135) scale(43.3333)">
<stop stop-color="#57BAFF"/>
<stop offset="1" stop-color="#5634E0"/>
</radialGradient>
<linearGradient id="paint1_linear_539_1350" x1="48.598" y1="40.4922" x2="2.63604" y2="86.4541" gradientUnits="userSpaceOnUse">
<stop stop-color="#1882CD" stop-opacity="0"/>
<stop offset="1"/>
</linearGradient>
</defs>
</svg>
