<svg width="74" height="74" viewBox="0 0 74 74" fill="none" xmlns="http://www.w3.org/2000/svg">
<g filter="url(#filter0_d_863_1634)">
<rect y="37" width="52" height="52" rx="10" transform="rotate(-45 0 37)" fill="url(#paint0_radial_863_1634)"/>
<rect y="37" width="52" height="52" rx="10" transform="rotate(-45 0 37)" fill="url(#paint1_linear_863_1634)" fill-opacity="0.2"/>
<path d="M25 26.3333C25 25.9797 25.1405 25.6406 25.3905 25.3905C25.6406 25.1405 25.9797 25 26.3333 25H30.3333C30.687 25 31.0261 25.1405 31.2761 25.3905C31.5262 25.6406 31.6667 25.9797 31.6667 26.3333V30.3333C31.6667 30.687 31.5262 31.0261 31.2761 31.2761C31.0261 31.5262 30.687 31.6667 30.3333 31.6667H26.3333C25.9797 31.6667 25.6406 31.5262 25.3905 31.2761C25.1405 31.0261 25 30.687 25 30.3333V26.3333ZM25 35C25 34.6464 25.1405 34.3072 25.3905 34.0572C25.6406 33.8071 25.9797 33.6667 26.3333 33.6667H30.3333C30.687 33.6667 31.0261 33.8071 31.2761 34.0572C31.5262 34.3072 31.6667 34.6464 31.6667 35V39C31.6667 39.3536 31.5262 39.6928 31.2761 39.9428C31.0261 40.1929 30.687 40.3333 30.3333 40.3333H26.3333C25.9797 40.3333 25.6406 40.1929 25.3905 39.9428C25.1405 39.6928 25 39.3536 25 39V35ZM25 43.6667C25 43.313 25.1405 42.9739 25.3905 42.7239C25.6406 42.4738 25.9797 42.3333 26.3333 42.3333H30.3333C30.687 42.3333 31.0261 42.4738 31.2761 42.7239C31.5262 42.9739 31.6667 43.313 31.6667 43.6667V47.6667C31.6667 48.0203 31.5262 48.3594 31.2761 48.6095C31.0261 48.8595 30.687 49 30.3333 49H26.3333C25.9797 49 25.6406 48.8595 25.3905 48.6095C25.1405 48.3594 25 48.0203 25 47.6667V43.6667ZM33.6667 26.3333C33.6667 25.9797 33.8071 25.6406 34.0572 25.3905C34.3072 25.1405 34.6464 25 35 25H39C39.3536 25 39.6928 25.1405 39.9428 25.3905C40.1929 25.6406 40.3333 25.9797 40.3333 26.3333V30.3333C40.3333 30.687 40.1929 31.0261 39.9428 31.2761C39.6928 31.5262 39.3536 31.6667 39 31.6667H35C34.6464 31.6667 34.3072 31.5262 34.0572 31.2761C33.8071 31.0261 33.6667 30.687 33.6667 30.3333V26.3333ZM33.6667 35C33.6667 34.6464 33.8071 34.3072 34.0572 34.0572C34.3072 33.8071 34.6464 33.6667 35 33.6667H39C39.3536 33.6667 39.6928 33.8071 39.9428 34.0572C40.1929 34.3072 40.3333 34.6464 40.3333 35V39C40.3333 39.3536 40.1929 39.6928 39.9428 39.9428C39.6928 40.1929 39.3536 40.3333 39 40.3333H35C34.6464 40.3333 34.3072 40.1929 34.0572 39.9428C33.8071 39.6928 33.6667 39.3536 33.6667 39V35ZM33.6667 43.6667C33.6667 43.313 33.8071 42.9739 34.0572 42.7239C34.3072 42.4738 34.6464 42.3333 35 42.3333H39C39.3536 42.3333 39.6928 42.4738 39.9428 42.7239C40.1929 42.9739 40.3333 43.313 40.3333 43.6667V47.6667C40.3333 48.0203 40.1929 48.3594 39.9428 48.6095C39.6928 48.8595 39.3536 49 39 49H35C34.6464 49 34.3072 48.8595 34.0572 48.6095C33.8071 48.3594 33.6667 48.0203 33.6667 47.6667V43.6667ZM42.3333 26.3333C42.3333 25.9797 42.4738 25.6406 42.7239 25.3905C42.9739 25.1405 43.313 25 43.6667 25H47.6667C48.0203 25 48.3594 25.1405 48.6095 25.3905C48.8595 25.6406 49 25.9797 49 26.3333V30.3333C49 30.687 48.8595 31.0261 48.6095 31.2761C48.3594 31.5262 48.0203 31.6667 47.6667 31.6667H43.6667C43.313 31.6667 42.9739 31.5262 42.7239 31.2761C42.4738 31.0261 42.3333 30.687 42.3333 30.3333V26.3333ZM42.3333 35C42.3333 34.6464 42.4738 34.3072 42.7239 34.0572C42.9739 33.8071 43.313 33.6667 43.6667 33.6667H47.6667C48.0203 33.6667 48.3594 33.8071 48.6095 34.0572C48.8595 34.3072 49 34.6464 49 35V39C49 39.3536 48.8595 39.6928 48.6095 39.9428C48.3594 40.1929 48.0203 40.3333 47.6667 40.3333H43.6667C43.313 40.3333 42.9739 40.1929 42.7239 39.9428C42.4738 39.6928 42.3333 39.3536 42.3333 39V35ZM42.3333 43.6667C42.3333 43.313 42.4738 42.9739 42.7239 42.7239C42.9739 42.4738 43.313 42.3333 43.6667 42.3333H47.6667C48.0203 42.3333 48.3594 42.4738 48.6095 42.7239C48.8595 42.9739 49 43.313 49 43.6667V47.6667C49 48.0203 48.8595 48.3594 48.6095 48.6095C48.3594 48.8595 48.0203 49 47.6667 49H43.6667C43.313 49 42.9739 48.8595 42.7239 48.6095C42.4738 48.3594 42.3333 48.0203 42.3333 47.6667V43.6667Z" fill="white"/>
</g>
<defs>
<filter id="filter0_d_863_1634" x="-2" y="0.230469" width="77.5391" height="77.5391" filterUnits="userSpaceOnUse" color-interpolation-filters="sRGB">
<feFlood flood-opacity="0" result="BackgroundImageFix"/>
<feColorMatrix in="SourceAlpha" type="matrix" values="0 0 0 0 0 0 0 0 0 0 0 0 0 0 0 0 0 0 127 0" result="hardAlpha"/>
<feOffset dy="2"/>
<feGaussianBlur stdDeviation="1"/>
<feComposite in2="hardAlpha" operator="out"/>
<feColorMatrix type="matrix" values="0 0 0 0 0 0 0 0 0 0 0 0 0 0 0 0 0 0 0.25 0"/>
<feBlend mode="normal" in2="BackgroundImageFix" result="effect1_dropShadow_863_1634"/>
<feBlend mode="normal" in="SourceGraphic" in2="effect1_dropShadow_863_1634" result="shape"/>
</filter>
<radialGradient id="paint0_radial_863_1634" cx="0" cy="0" r="1" gradientUnits="userSpaceOnUse" gradientTransform="translate(34.0434 55.0468) rotate(135) scale(43.3333)">
<stop stop-color="#57BAFF"/>
<stop offset="1" stop-color="#5634E0"/>
</radialGradient>
<linearGradient id="paint1_linear_863_1634" x1="48.598" y1="40.4922" x2="2.63604" y2="86.4542" gradientUnits="userSpaceOnUse">
<stop stop-color="#1882CD" stop-opacity="0"/>
<stop offset="1"/>
</linearGradient>
</defs>
</svg>
