<svg width="24" height="30" viewBox="0 0 24 30" fill="none" xmlns="http://www.w3.org/2000/svg">
<path d="M12 0C18.6274 0 24 5.37258 24 12V27C24 28.6569 22.6569 30 21 30H3C1.34315 30 2.416e-08 28.6569 0 27V3C3.8656e-07 1.34315 1.34315 0 3 0H12ZM6.59766 22.9443C6.11002 22.9443 5.34877 23.0915 4.77637 23.3848C4.33126 23.6128 4 23.9291 4 24.333V26H9.19434V24.333C9.19424 24.1021 9.08596 23.9001 8.91016 23.7266C8.82231 23.6399 8.71813 23.5596 8.60156 23.4873C8.48484 23.4149 8.35606 23.35 8.2207 23.292C8.08546 23.2341 7.94352 23.1831 7.7998 23.1396C7.72809 23.118 7.65591 23.0982 7.58398 23.0801C7.22371 22.9894 6.86856 22.9444 6.59766 22.9443ZM12.4023 22.9443C11.5354 22.9445 9.80595 23.41 9.80566 24.333V26H15V24.334C15 23.41 13.2692 22.9443 12.4023 22.9443ZM9.5 22.333C9.34116 22.3332 9.1831 22.3468 9.02734 22.373L8.94922 22.3867C8.93675 22.3892 8.92454 22.3929 8.91211 22.3955C8.85345 22.4079 8.79509 22.4215 8.7373 22.4375C8.72559 22.4408 8.71383 22.4439 8.70215 22.4473C8.5566 22.4896 8.41417 22.5433 8.27637 22.6084C8.80917 22.7936 9.27936 23.0721 9.44043 23.4424C9.4654 23.4998 9.48302 23.5593 9.49219 23.6211L9.5 23.7217C9.5 23.6235 9.52044 23.5303 9.55859 23.4424C9.71953 23.0719 10.1907 22.7936 10.7236 22.6084C10.658 22.5773 10.591 22.5493 10.5234 22.5234C10.5111 22.5187 10.4987 22.5143 10.4863 22.5098C10.4238 22.4868 10.3607 22.4658 10.2969 22.4473C10.2852 22.4439 10.2734 22.4407 10.2617 22.4375C10.2039 22.4215 10.1456 22.4078 10.0869 22.3955C10.0616 22.3901 10.0362 22.3846 10.0107 22.3799C9.94631 22.3681 9.88157 22.3579 9.81641 22.3506C9.76377 22.3447 9.71103 22.3399 9.6582 22.3369C9.6056 22.3339 9.55283 22.3331 9.5 22.333ZM6.59766 19.8887C5.92238 19.8887 5.375 20.4361 5.375 21.1113C5.37517 21.7864 5.92249 22.333 6.59766 22.333C7.27264 22.3328 7.81916 21.7863 7.81934 21.1113C7.81934 20.4362 7.27274 19.8889 6.59766 19.8887ZM12.4023 19.8887C11.7273 19.8889 11.1807 20.4362 11.1807 21.1113C11.1808 21.7863 11.7274 22.3328 12.4023 22.333C13.0775 22.333 13.6248 21.7864 13.625 21.1113C13.625 20.4361 13.0776 19.8887 12.4023 19.8887ZM9.5 19.2773C8.82475 19.2774 8.27734 19.8248 8.27734 20.5C8.27744 21.1752 8.82481 21.7217 9.5 21.7217C10.1752 21.7217 10.7226 21.1752 10.7227 20.5C10.7227 19.8247 10.1753 19.2773 9.5 19.2773ZM11.2822 15.6113C10.8906 15.6114 10.5152 15.767 10.2383 16.0439C9.96141 16.3209 9.80566 16.6963 9.80566 17.0879C9.80573 18.9132 12.2291 19.2743 12.25 19.2773V18.667L12.3057 18.6641C12.7061 18.6502 13.0856 18.4801 13.3613 18.1895C13.6371 17.8988 13.7875 17.5109 13.7803 17.1104C13.773 16.7098 13.6083 16.3283 13.3223 16.0479C13.0362 15.7674 12.6515 15.6108 12.251 15.6113H11.2822ZM5.52832 15C5.12313 15 4.73378 15.1608 4.44727 15.4473C4.16089 15.7337 4.00011 16.1223 4 16.5273C4 16.9325 4.16075 17.3219 4.44727 17.6084C4.73378 17.8949 5.12314 18.0557 5.52832 18.0557H6.13867V18.9717C6.13867 18.9717 8.88867 18.5857 8.88867 16.5996C8.88861 16.1754 8.7199 15.7687 8.41992 15.4688C8.1199 15.1688 7.7133 15 7.28906 15H5.52832ZM13.2861 3C12.5761 3 12 3.57605 12 4.28613V12C12 13.1046 12.8954 14 14 14H19.4287C20.2965 13.9999 20.9999 13.2965 21 12.4287V10.7139C20.9998 6.45372 17.5463 3.00023 13.2861 3Z" fill="white"/>
</svg>
