<svg width="24" height="30" viewBox="0 0 24 30" fill="none" xmlns="http://www.w3.org/2000/svg">
<path d="M12 22.5001C12.425 22.5001 12.7815 22.3561 13.0695 22.0681C13.3575 21.7801 13.501 21.4241 13.5 21.0001V15.0001C13.5 14.5751 13.356 14.2191 13.068 13.9321C12.78 13.6451 12.424 13.5011 12 13.5001C11.576 13.4991 11.22 13.6431 10.932 13.9321C10.644 14.2211 10.5 14.5771 10.5 15.0001V21.0001C10.5 21.4251 10.644 21.7816 10.932 22.0696C11.22 22.3576 11.576 22.5011 12 22.5001ZM12 10.5001C12.425 10.5001 12.7815 10.3561 13.0695 10.0681C13.3575 9.7801 13.501 9.4241 13.5 9.0001C13.499 8.5761 13.355 8.2201 13.068 7.9321C12.781 7.6441 12.425 7.5001 12 7.5001C11.575 7.5001 11.219 7.6441 10.932 7.9321C10.645 8.2201 10.501 8.5761 10.5 9.0001C10.499 9.4241 10.643 9.7806 10.932 10.0696C11.221 10.3586 11.577 10.5021 12 10.5001ZM12 29.8501C11.825 29.8501 11.6625 29.8376 11.5125 29.8126C11.3625 29.7876 11.2125 29.7501 11.0625 29.7001C7.6875 28.5751 5 26.4936 3 23.4556C1 20.4176 0 17.1491 0 13.6501V6.5626C0 5.9376 0.1815 5.3751 0.5445 4.8751C0.9075 4.3751 1.376 4.0126 1.95 3.7876L10.95 0.412598C11.3 0.287598 11.65 0.225098 12 0.225098C12.35 0.225098 12.7 0.287598 13.05 0.412598L22.05 3.7876C22.625 4.0126 23.094 4.3751 23.457 4.8751C23.82 5.3751 24.001 5.9376 24 6.5626V13.6501C24 17.1501 23 20.4191 21 23.4571C19 26.4951 16.3125 28.5761 12.9375 29.7001C12.7875 29.7501 12.6375 29.7876 12.4875 29.8126C12.3375 29.8376 12.175 29.8501 12 29.8501Z" fill="#6500D8"/>
</svg>
