<svg width="36" height="36" viewBox="0 0 36 36" fill="none" xmlns="http://www.w3.org/2000/svg">
<path d="M20.6073 13.1562C20.3783 13.7685 19.6987 14.0782 19.0865 13.8492L15.2124 12.4007L16.0401 10.187L19.9142 11.6355C20.5265 11.8644 20.8362 12.544 20.6073 13.1562ZM20.0489 7.90098C20.6612 8.12991 20.9709 8.80946 20.742 9.42173C20.513 10.034 19.8335 10.3437 19.2212 10.1147L16.454 9.08009L17.2817 6.86633L20.0489 7.90098ZM17.5657 14.5423C18.178 14.7712 18.4877 15.4507 18.2588 16.063C18.0298 16.6753 17.3503 16.985 16.738 16.756L13.4174 15.5144C12.8051 15.2855 12.4954 14.606 12.7243 13.9937C12.9533 13.3814 13.6328 13.0718 14.2451 13.3007L17.5657 14.5423ZM14.1104 17.0352C14.7227 17.2641 15.0323 17.9437 14.8034 18.5559C14.5745 19.1682 13.8949 19.4779 13.2827 19.2489L11.0689 18.4212C10.4566 18.1923 10.1469 17.5128 10.3758 16.9005C10.6048 16.2882 11.2843 15.9785 11.8966 16.2075L14.1104 17.0352ZM12.308 12.5764L12.3288 12.5842C12.0204 12.8395 11.7687 13.1752 11.6174 13.5798C11.4467 14.0364 11.4273 14.5102 11.5306 14.9509C10.5568 14.9299 9.62979 15.5216 9.26896 16.4866C9.11765 16.8913 9.08392 17.3085 9.15257 17.7047L8.85509 17.5935C7.04605 16.9171 5.76219 15.4475 5.25527 13.7243L1.9346 12.4827C1.32232 12.2538 1.01265 11.5742 1.24157 10.962L3.3109 5.42757C3.53982 4.8153 4.21937 4.50563 4.83165 4.73455L7.54353 5.74851C8.0405 5.2523 8.62321 4.84327 9.27426 4.54653L9.82552 4.29537C10.9661 3.7756 12.2683 3.73023 13.441 4.16867L14.3749 4.51787C15.5959 4.9744 16.2175 6.33835 15.761 7.55935L14.6228 10.6033C14.337 11.3677 13.4864 11.7554 12.7219 11.4695C11.9574 11.1837 11.5698 10.3331 11.8556 9.56862L12.5799 7.63158C12.6937 7.32719 12.5378 6.98502 12.2334 6.87121C11.929 6.7574 11.5868 6.91333 11.473 7.21772L10.7487 9.15476C10.234 10.5314 10.9313 12.0617 12.308 12.5764Z" fill="white"/>
<path d="M14.3927 26.36C14.6217 26.9722 15.3013 27.2819 15.9135 27.053L19.7876 25.6045L18.9599 23.3907L15.0858 24.8392C14.4735 25.0681 14.1638 25.7477 14.3927 26.36ZM14.9511 21.1047C14.3388 21.3336 14.0291 22.0132 14.258 22.6255C14.487 23.2377 15.1665 23.5474 15.7788 23.3185L18.546 22.2838L17.7183 20.0701L14.9511 21.1047ZM17.4343 27.746C16.822 27.9749 16.5123 28.6545 16.7412 29.2667C16.9702 29.879 17.6497 30.1887 18.262 29.9598L21.5826 28.7182C22.1949 28.4893 22.5046 27.8097 22.2757 27.1974C22.0467 26.5852 21.3672 26.2755 20.7549 26.5044L17.4343 27.746ZM20.8896 30.2389C20.2773 30.4678 19.9677 31.1474 20.1966 31.7597C20.4255 32.3719 21.1051 32.6816 21.7173 32.4527L23.9311 31.625C24.5434 31.396 24.8531 30.7165 24.6242 30.1042C24.3952 29.4919 23.7157 29.1823 23.1034 29.4112L20.8896 30.2389ZM22.692 25.7802L22.6712 25.7879C22.9796 26.0432 23.2313 26.3789 23.3826 26.7836C23.5533 27.2402 23.5727 27.7139 23.4694 28.1547C24.4432 28.1336 25.3702 28.7253 25.731 29.6904C25.8823 30.095 25.9161 30.5122 25.8474 30.9085L26.1449 30.7972C27.9539 30.1208 29.2378 28.6513 29.7447 26.928L33.0654 25.6865C33.6777 25.4575 33.9874 24.778 33.7584 24.1657L31.6891 18.6313C31.4602 18.019 30.7806 17.7094 30.1684 17.9383L27.4565 18.9522C26.9595 18.456 26.3768 18.047 25.7257 17.7503L25.1745 17.4991C24.0339 16.9793 22.7317 16.934 21.559 17.3724L20.6251 17.7216C19.4041 18.1781 18.7825 19.5421 19.239 20.7631L20.3772 23.807C20.663 24.5715 21.5136 24.9591 22.2781 24.6733C23.0426 24.3875 23.4302 23.5368 23.1444 22.7724L22.4201 20.8353C22.3063 20.5309 22.4622 20.1888 22.7666 20.0749C23.071 19.9611 23.4132 20.1171 23.527 20.4215L24.2513 22.3585C24.766 23.7352 24.0687 25.2654 22.692 25.7802Z" fill="white"/>
</svg>
