<svg width="24" height="30" viewBox="0 0 24 30" fill="none" xmlns="http://www.w3.org/2000/svg">
<path d="M12 0C18.6274 0 24 5.37258 24 12V27C24 28.6569 22.6569 30 21 30H3C1.34315 30 2.416e-08 28.6569 0 27V3C3.8656e-07 1.34315 1.34315 0 3 0H12ZM6.4502 13V14.5742C5.02931 14.9425 4.00017 16.0404 4 17.333C4 19.3408 5.84804 19.8174 7.33203 20.2002C8.87203 20.583 9.59961 20.8725 9.59961 21.667C9.59934 22.4469 8.64084 23.1113 7.5 23.1113C6.35916 23.1113 5.40066 22.4469 5.40039 21.667H4C4.00017 22.9596 5.02931 24.0575 6.4502 24.4258V26H8.5498V24.4258C9.97069 24.0575 10.9998 22.9596 11 21.667C11 19.6592 9.15196 19.1826 7.66797 18.7998C6.12797 18.417 5.40039 18.1275 5.40039 17.333C5.40066 16.5531 6.35916 15.8887 7.5 15.8887C8.64084 15.8887 9.59934 16.5531 9.59961 17.333H11C10.9998 16.0404 9.97069 14.9425 8.5498 14.5742V13H6.4502ZM13.2861 3C12.5761 3 12 3.57605 12 4.28613V12C12 13.1046 12.8954 14 14 14H19.4287C20.2965 13.9999 20.9999 13.2965 21 12.4287V10.7139C20.9998 6.45372 17.5463 3.00023 13.2861 3Z" fill="white"/>
</svg>
