<svg width="29" height="23" viewBox="0 0 29 23" fill="none" xmlns="http://www.w3.org/2000/svg">
<path d="M2.99991 8.99995L1.93941 10.0605L0.878906 8.99995L1.93941 7.93945L2.99991 8.99995ZM28.4999 21C28.4999 21.3978 28.3419 21.7793 28.0606 22.0606C27.7793 22.3419 27.3977 22.5 26.9999 22.5C26.6021 22.5 26.2205 22.3419 25.9392 22.0606C25.6579 21.7793 25.4999 21.3978 25.4999 21H28.4999ZM9.43941 17.5605L1.93941 10.0605L4.06041 7.93945L11.5604 15.4395L9.43941 17.5605ZM1.93941 7.93945L9.43941 0.439453L11.5604 2.56045L4.06041 10.0605L1.93941 7.93945ZM2.99991 7.49995H17.9999V10.5H2.99991V7.49995ZM28.4999 18V21H25.4999V18H28.4999ZM17.9999 7.49995C20.7847 7.49995 23.4554 8.6062 25.4245 10.5753C27.3937 12.5445 28.4999 15.2152 28.4999 18H25.4999C25.4999 16.0108 24.7097 14.1032 23.3032 12.6967C21.8967 11.2901 19.989 10.5 17.9999 10.5V7.49995Z" fill="#999999"/>
</svg>
