<svg width="36" height="32" viewBox="0 0 36 32" fill="none" xmlns="http://www.w3.org/2000/svg">
<path d="M20.25 10.375C20.25 13.0603 19.1833 15.6356 17.2845 17.5345C15.3857 19.4333 12.8103 20.5 10.125 20.5C7.43968 20.5 4.86435 19.4333 2.96554 17.5345C1.06674 15.6356 0 13.0603 0 10.375C0 7.68968 1.06674 5.11435 2.96554 3.21554C4.86435 1.31674 7.43968 0.25 10.125 0.25C12.8103 0.25 15.3857 1.31674 17.2845 3.21554C19.1833 5.11435 20.25 7.68968 20.25 10.375ZM10.125 4.75C9.82663 4.75 9.54048 4.86853 9.3295 5.0795C9.11853 5.29048 9 5.57663 9 5.875V10.375C9 10.6734 9.11853 10.9595 9.3295 11.1705C9.54048 11.3815 9.82663 11.5 10.125 11.5H13.5C13.7984 11.5 14.0845 11.3815 14.2955 11.1705C14.5065 10.9595 14.625 10.6734 14.625 10.375C14.625 10.0766 14.5065 9.79048 14.2955 9.5795C14.0845 9.36853 13.7984 9.25 13.5 9.25H11.25V5.875C11.25 5.57663 11.1315 5.29048 10.9205 5.0795C10.7095 4.86853 10.4234 4.75 10.125 4.75ZM10.125 22.75C14.4675 22.75 18.2925 20.5112 20.4975 17.125H25.9492L23.9018 13.2865C23.5691 12.6626 23.0489 12.1589 22.4145 11.8465C22.507 11.0557 22.5243 10.2579 22.4662 9.46375C23.1926 9.67107 23.8698 10.0226 24.4574 10.4973C25.045 10.972 25.5309 11.5602 25.8862 12.2267L28.4422 17.017L32.2605 18.376C33.3541 18.7651 34.3006 19.483 34.9701 20.4313C35.6396 21.3795 35.9994 22.5117 36 23.6725V24.4352C36 26.0327 35.0505 27.4053 33.6825 28.024C33.5056 29.0373 32.9869 29.9595 32.2128 30.6369C31.4386 31.3143 30.4558 31.706 29.4279 31.7468C28.4 31.7875 27.3892 31.4749 26.5639 30.861C25.7385 30.2471 25.1483 29.3689 24.8918 28.3727H15.6082C15.3517 29.3689 14.7615 30.2471 13.9361 30.861C13.1108 31.4749 12.1 31.7875 11.0721 31.7468C10.0442 31.706 9.06138 31.3143 8.28723 30.6369C7.51307 29.9595 6.99436 29.0373 6.8175 28.024C6.12719 27.7124 5.54141 27.2083 5.13036 26.5722C4.71931 25.9361 4.50044 25.1949 4.5 24.4375V21.931C4.5 21.757 4.5075 21.5845 4.5225 21.4135C6.2055 22.2685 8.109 22.75 10.125 22.75ZM9 27.25C9 27.8467 9.23705 28.419 9.65901 28.841C10.081 29.2629 10.6533 29.5 11.25 29.5C11.8467 29.5 12.419 29.2629 12.841 28.841C13.2629 28.419 13.5 27.8467 13.5 27.25C13.5 26.6533 13.2629 26.081 12.841 25.659C12.419 25.2371 11.8467 25 11.25 25C10.6533 25 10.081 25.2371 9.65901 25.659C9.23705 26.081 9 26.6533 9 27.25ZM29.25 25C28.6533 25 28.081 25.2371 27.659 25.659C27.2371 26.081 27 26.6533 27 27.25C27 27.8467 27.2371 28.419 27.659 28.841C28.081 29.2629 28.6533 29.5 29.25 29.5C29.8467 29.5 30.419 29.2629 30.841 28.841C31.2629 28.419 31.5 27.8467 31.5 27.25C31.5 26.6533 31.2629 26.081 30.841 25.659C30.419 25.2371 29.8467 25 29.25 25Z" fill="white"/>
</svg>
