<svg width="36" height="36" viewBox="0 0 36 36" fill="none" xmlns="http://www.w3.org/2000/svg">
<path d="M31.2739 19.469C32.627 20.1455 32.627 20.1455 33.3035 21.4986C33.5534 23.8483 33.707 26.1041 32.627 28.2641C32.818 29.8473 33.0413 31.427 33.3035 33C30.1778 33 27.0522 33 23.8318 33C24.03 31.6125 24.2282 30.2251 24.4264 28.8376C24.4535 28.4251 24.4805 28.0126 24.5084 27.5876C24.2851 27.3643 24.0618 27.1411 23.8318 26.911C23.5225 22.1172 23.5225 22.1172 24.5084 20.1455C26.7153 19.0421 28.8623 19.1173 31.2739 19.469Z" fill="white"/>
<path d="M20.449 19.469C21.8021 20.1455 21.8021 20.1455 22.4787 21.4986C22.7285 23.8483 22.8821 26.1041 21.8021 28.2641C21.9932 29.8473 22.2165 31.427 22.4787 33C19.353 33 16.2274 33 13.007 33C13.2052 31.6125 13.4034 30.2251 13.6016 28.8376C13.6286 28.4251 13.6557 28.0126 13.6835 27.5876C13.4603 27.3643 13.237 27.1411 13.007 26.911C12.6977 22.1172 12.6977 22.1172 13.6835 20.1455C15.8905 19.0421 18.0375 19.1173 20.449 19.469Z" fill="white"/>
<path d="M9.62426 19.469C10.9774 20.1455 10.9774 20.1455 11.6539 21.4986C11.9038 23.8483 12.0574 26.1041 10.9774 28.2641C11.1684 29.8473 11.3918 31.427 11.6539 33C8.52825 33 5.40259 33 2.18221 33C2.38042 31.6125 2.57863 30.2251 2.77683 28.8376C2.80387 28.4251 2.83091 28.0126 2.85876 27.5876C2.6355 27.3643 2.41224 27.1411 2.18221 26.911C1.87293 22.1172 1.87293 22.1172 2.85876 20.1455C5.0657 19.0421 7.21273 19.1173 9.62426 19.469Z" fill="white"/>
<path d="M20.449 3.23181C21.8021 3.90836 21.8021 3.90836 22.4787 5.26146C22.7285 7.61116 22.8821 9.86695 21.8021 12.027C21.9932 13.6101 22.2165 15.1899 22.4787 16.7628C19.353 16.7628 16.2274 16.7628 13.007 16.7628C13.2052 15.3753 13.4034 13.9879 13.6016 12.6004C13.6286 12.1879 13.6557 11.7754 13.6835 11.3504C13.4603 11.1271 13.237 10.9039 13.007 10.6739C12.6977 5.88002 12.6977 5.88002 13.6835 3.90836C15.8905 2.80489 18.0375 2.88013 20.449 3.23181Z" fill="white"/>
<path d="M23.8318 8.64417C26.0644 8.64417 28.297 8.64417 30.5973 8.64417C30.5973 11.3233 30.5973 14.0024 30.5973 16.7628C29.7042 16.7628 28.8112 16.7628 27.8911 16.7628C27.8911 14.9767 27.8911 13.1906 27.8911 11.3504C26.5515 11.3504 25.2119 11.3504 23.8318 11.3504C23.8318 10.4573 23.8318 9.56427 23.8318 8.64417Z" fill="white"/>
<path d="M4.88837 8.64417C7.12098 8.64417 9.3536 8.64417 11.6539 8.64417C11.6539 9.53721 11.6539 10.4303 11.6539 11.3504C10.3143 11.3504 8.97473 11.3504 7.59457 11.3504C7.59457 13.1365 7.59457 14.9225 7.59457 16.7628C6.70152 16.7628 5.80847 16.7628 4.88837 16.7628C4.88837 14.0836 4.88837 11.4045 4.88837 8.64417Z" fill="white"/>
</svg>
