<svg width="28" height="28" viewBox="0 0 28 28" fill="none" xmlns="http://www.w3.org/2000/svg">
<path d="M26 0C27.1046 0 28 0.895431 28 2V26C28 27.1046 27.1046 28 26 28H2C0.895431 28 0 27.1046 0 26V2C0 0.895431 0.895431 0 2 0H26ZM7 19C7 18.4477 6.55228 18 6 18H5.66667C5.11438 18 4.66667 18.4477 4.66667 19C4.66667 19.5523 5.11438 20 5.66667 20H6C6.55228 20 7 19.5523 7 19ZM7 13C7 12.4477 6.55228 12 6 12H5.66667C5.11438 12 4.66667 12.4477 4.66667 13C4.66667 13.5523 5.11438 14 5.66667 14H6C6.55228 14 7 13.5523 7 13ZM7 7C7 6.44772 6.55228 6 6 6H5.66667C5.11438 6 4.66667 6.44772 4.66667 7C4.66667 7.55228 5.11438 8 5.66667 8H6C6.55228 8 7 7.55228 7 7ZM23.3333 19C23.3333 18.4477 22.8856 18 22.3333 18H10.3333C9.78105 18 9.33333 18.4477 9.33333 19C9.33333 19.5523 9.78105 20 10.3333 20H22.3333C22.8856 20 23.3333 19.5523 23.3333 19ZM23.3333 13C23.3333 12.4477 22.8856 12 22.3333 12H10.3333C9.78105 12 9.33333 12.4477 9.33333 13C9.33333 13.5523 9.78105 14 10.3333 14H22.3333C22.8856 14 23.3333 13.5523 23.3333 13ZM23.3333 7C23.3333 6.44772 22.8856 6 22.3333 6H10.3333C9.78105 6 9.33333 6.44772 9.33333 7C9.33333 7.55228 9.78105 8 10.3333 8H22.3333C22.8856 8 23.3333 7.55228 23.3333 7Z" fill="white"/>
</svg>
