<svg width="32" height="29" viewBox="0 0 32 29" fill="none" xmlns="http://www.w3.org/2000/svg">
<path d="M20.2961 11.4C21.8031 11.4 23.0261 12.623 23.0261 14.13V21.5384C23.0261 23.4006 22.2864 25.1866 20.9695 26.5034C19.6528 27.8202 17.8668 28.56 16.0046 28.56C14.1424 28.56 12.3564 27.8202 11.0396 26.5034C9.72277 25.1866 8.98302 23.4006 8.98302 21.5384V14.13C8.98302 12.623 10.2045 11.4 11.713 11.4H20.2961ZM8.40426 11.4C7.84058 12.075 7.50238 12.9097 7.43706 13.7868L7.42146 14.13V21.5384C7.42146 22.8597 7.72098 24.1109 8.2545 25.2278C7.73866 25.3682 7.20046 25.4389 6.6399 25.44C5.82028 25.44 5.00877 25.2786 4.25165 24.9648C3.49442 24.6511 2.80646 24.1914 2.22697 23.6118C1.64759 23.0322 1.18791 22.3441 0.874454 21.5869C0.560998 20.8296 0.399695 20.018 0.399903 19.1984V14.13C0.399903 13.4448 0.657615 12.7847 1.12166 12.2808C1.58581 11.7768 2.2224 11.4657 2.90526 11.4093L3.1299 11.4H8.40426ZM23.6049 11.4H28.8699C30.3769 11.4 31.5999 12.623 31.5999 14.13V19.2C31.6001 20.1565 31.3805 21.1003 30.9578 21.9584C30.5352 22.8165 29.9209 23.566 29.1625 24.1489C28.4041 24.7317 27.5219 25.1326 26.5839 25.3202C25.6459 25.5078 24.6774 25.4772 23.7531 25.2309C24.2211 24.2513 24.5081 23.1717 24.5721 22.0298L24.5861 21.5384V14.13C24.5861 13.0926 24.2195 12.141 23.6049 11.4ZM15.9999 0.47998C17.2411 0.47998 18.4315 0.973044 19.3092 1.8507C20.1868 2.72836 20.6799 3.91874 20.6799 5.15998C20.6799 6.40122 20.1868 7.5916 19.3092 8.46926C18.4315 9.34692 17.2411 9.83998 15.9999 9.83998C14.7587 9.83998 13.5683 9.34692 12.6906 8.46926C11.813 7.5916 11.3199 6.40122 11.3199 5.15998C11.3199 3.91874 11.813 2.72836 12.6906 1.8507C13.5683 0.973044 14.7587 0.47998 15.9999 0.47998ZM26.1399 2.03998C27.1743 2.03998 28.1662 2.45088 28.8977 3.18221C29.629 3.91364 30.0399 4.9056 30.0399 5.93998C30.0399 6.97436 29.629 7.96632 28.8977 8.69775C28.1662 9.42908 27.1743 9.83998 26.1399 9.83998C25.1055 9.83998 24.1136 9.42908 23.3821 8.69775C22.6508 7.96632 22.2399 6.97436 22.2399 5.93998C22.2399 4.9056 22.6508 3.91364 23.3821 3.18221C24.1136 2.45088 25.1055 2.03998 26.1399 2.03998ZM5.8599 2.03998C6.89429 2.03998 7.88624 2.45088 8.61767 3.18221C9.349 3.91364 9.7599 4.9056 9.7599 5.93998C9.7599 6.97436 9.349 7.96632 8.61767 8.69775C7.88624 9.42908 6.89429 9.83998 5.8599 9.83998C4.82552 9.83998 3.83357 9.42908 3.10213 8.69775C2.37081 7.96632 1.9599 6.97436 1.9599 5.93998C1.9599 4.9056 2.37081 3.91364 3.10213 3.18221C3.83357 2.45088 4.82552 2.03998 5.8599 2.03998Z" fill="white"/>
</svg>
