<svg width="24" height="30" viewBox="0 0 24 30" fill="none" xmlns="http://www.w3.org/2000/svg">
<path d="M12 0C18.6274 0 24 5.37258 24 12V27C24 28.6569 22.6569 30 21 30H3C1.34315 30 2.416e-08 28.6569 0 27V3C3.8656e-07 1.34315 1.34315 0 3 0H12ZM4.5 14V26H7.5V14H4.5ZM10.5 18V26H13.5V18H10.5ZM16.5 22V26H19.5V22H16.5ZM13.2861 3C12.5761 3 12 3.57605 12 4.28613V12C12 13.1046 12.8954 14 14 14H19.4287C20.2965 13.9999 20.9999 13.2965 21 12.4287V10.7139C20.9998 6.45372 17.5463 3.00023 13.2861 3Z" fill="white"/>
</svg>
